<mxfile host="Electron" agent="Mozilla/5.0 (Macintosh; Intel Mac OS X 10_15_7) AppleWebKit/537.36 (KHTML, like Gecko) draw.io/24.7.5 Chrome/126.0.6478.183 Electron/31.3.0 Safari/537.36" version="24.7.5">
  <diagram id="HRN9QZivu7BtuUAxPnuZ" name="Page-1">
    <mxGraphModel dx="954" dy="727" grid="1" gridSize="10" guides="1" tooltips="1" connect="1" arrows="1" fold="1" page="1" pageScale="1" pageWidth="850" pageHeight="1100" background="none" math="0" shadow="0">
      <root>
        <mxCell id="0" />
        <mxCell id="1" parent="0" />
        <mxCell id="KLi92U7IpaG3Ddm6AZuy-5" style="edgeStyle=orthogonalEdgeStyle;rounded=0;orthogonalLoop=1;jettySize=auto;html=1;curved=1;strokeWidth=2;" parent="1" source="KLi92U7IpaG3Ddm6AZuy-1" target="KLi92U7IpaG3Ddm6AZuy-2" edge="1">
          <mxGeometry relative="1" as="geometry" />
        </mxCell>
        <mxCell id="KLi92U7IpaG3Ddm6AZuy-6" style="edgeStyle=orthogonalEdgeStyle;curved=1;rounded=0;orthogonalLoop=1;jettySize=auto;html=1;strokeWidth=2;" parent="1" source="KLi92U7IpaG3Ddm6AZuy-1" target="KLi92U7IpaG3Ddm6AZuy-3" edge="1">
          <mxGeometry relative="1" as="geometry" />
        </mxCell>
        <mxCell id="KLi92U7IpaG3Ddm6AZuy-7" style="edgeStyle=orthogonalEdgeStyle;curved=1;rounded=0;orthogonalLoop=1;jettySize=auto;html=1;entryX=0.5;entryY=1;entryDx=0;entryDy=0;strokeWidth=2;" parent="1" source="KLi92U7IpaG3Ddm6AZuy-1" target="KLi92U7IpaG3Ddm6AZuy-4" edge="1">
          <mxGeometry relative="1" as="geometry" />
        </mxCell>
        <mxCell id="KLi92U7IpaG3Ddm6AZuy-1" value="" style="shape=mxgraph.signs.healthcare.brain;html=1;pointerEvents=1;fillColor=#000000;strokeColor=none;verticalLabelPosition=bottom;verticalAlign=top;align=center;" parent="1" vertex="1">
          <mxGeometry x="501" y="420" width="98" height="85" as="geometry" />
        </mxCell>
        <mxCell id="KLi92U7IpaG3Ddm6AZuy-2" value="" style="rounded=1;whiteSpace=wrap;html=1;dashed=1;strokeWidth=2;fillColor=#d5e8d4;gradientColor=#97d077;strokeColor=#82b366;" parent="1" vertex="1">
          <mxGeometry x="120" y="70" width="220" height="240" as="geometry" />
        </mxCell>
        <mxCell id="KLi92U7IpaG3Ddm6AZuy-3" value="" style="rounded=1;whiteSpace=wrap;html=1;dashed=1;strokeWidth=2;" parent="1" vertex="1">
          <mxGeometry x="440" y="70" width="220" height="240" as="geometry" />
        </mxCell>
        <mxCell id="KLi92U7IpaG3Ddm6AZuy-4" value="" style="rounded=1;whiteSpace=wrap;html=1;dashed=1;strokeWidth=2;" parent="1" vertex="1">
          <mxGeometry x="760" y="70" width="220" height="240" as="geometry" />
        </mxCell>
        <mxCell id="KLi92U7IpaG3Ddm6AZuy-8" value="&lt;span style=&quot;font-size: 16px;&quot;&gt;&lt;b&gt;ADE Knowledge Chatbot&lt;/b&gt;&lt;/span&gt;" style="text;html=1;align=center;verticalAlign=middle;whiteSpace=wrap;rounded=0;dashed=1;strokeWidth=2;" parent="1" vertex="1">
          <mxGeometry x="127.5" y="40" width="205" height="30" as="geometry" />
        </mxCell>
        <mxCell id="KLi92U7IpaG3Ddm6AZuy-10" value="&lt;b&gt;Jobs Adjustment&lt;/b&gt;" style="text;html=1;align=center;verticalAlign=middle;resizable=0;points=[];autosize=1;strokeColor=none;fillColor=none;fontSize=16;dashed=1;strokeWidth=2;" parent="1" vertex="1">
          <mxGeometry x="795" y="40" width="150" height="30" as="geometry" />
        </mxCell>
        <mxCell id="KLi92U7IpaG3Ddm6AZuy-11" value="&lt;pre style=&quot;font-size: 16px; unicode-bidi: isolate; line-height: 36px; border: none; padding: 2px 0.14em 2px 0px; position: relative; margin-top: -2px; margin-bottom: -2px; resize: none; font-family: inherit; overflow: hidden; width: 270px; overflow-wrap: break-word;&quot; dir=&quot;ltr&quot; data-ved=&quot;2ahUKEwiTsOmcuuKHAxVxJEQIHUuVCKkQ3ewLegQIDRAU&quot; aria-label=&quot;Translated text&quot; id=&quot;tw-target-text&quot; data-placeholder=&quot;Translation&quot; class=&quot;tw-data-text tw-text-large tw-ta&quot;&gt;&lt;b&gt;Requirements Automation&lt;/b&gt;&lt;/pre&gt;" style="text;html=1;strokeColor=none;fillColor=none;align=center;verticalAlign=middle;whiteSpace=wrap;rounded=0;dashed=1;strokeWidth=2;" parent="1" vertex="1">
          <mxGeometry x="455" y="40" width="205" height="30" as="geometry" />
        </mxCell>
        <mxCell id="KLi92U7IpaG3Ddm6AZuy-13" value="Chat Window" style="swimlane;whiteSpace=wrap;html=1;strokeWidth=2;fontSize=16;fillColor=#dae8fc;gradientColor=#7ea6e0;strokeColor=#6c8ebf;" parent="1" vertex="1">
          <mxGeometry x="132.5" y="90" width="200" height="200" as="geometry">
            <mxRectangle x="132.5" y="90" width="140" height="30" as="alternateBounds" />
          </mxGeometry>
        </mxCell>
        <mxCell id="KLi92U7IpaG3Ddm6AZuy-16" value="" style="aspect=fixed;html=1;points=[];align=center;image;fontSize=12;image=img/lib/azure2/ai_machine_learning/Batch_AI.svg;strokeWidth=2;fillColor=#d5e8d4;gradientColor=#97d077;strokeColor=#82b366;" parent="KLi92U7IpaG3Ddm6AZuy-13" vertex="1">
          <mxGeometry x="14.75" y="100" width="20.5" height="29.04" as="geometry" />
        </mxCell>
        <mxCell id="KLi92U7IpaG3Ddm6AZuy-19" value="" style="group;" parent="KLi92U7IpaG3Ddm6AZuy-13" vertex="1" connectable="0">
          <mxGeometry x="10" y="30" width="180" height="60" as="geometry" />
        </mxCell>
        <mxCell id="KLi92U7IpaG3Ddm6AZuy-15" value="&lt;b&gt;:Could you please explaint how to use calcVal?&lt;/b&gt;" style="text;html=1;align=left;verticalAlign=middle;whiteSpace=wrap;rounded=0;strokeWidth=2;fontSize=16;movable=1;resizable=1;rotatable=1;deletable=1;editable=1;connectable=1;" parent="KLi92U7IpaG3Ddm6AZuy-19" vertex="1">
          <mxGeometry x="30" width="150" height="60" as="geometry" />
        </mxCell>
        <mxCell id="KLi92U7IpaG3Ddm6AZuy-17" value="" style="html=1;verticalLabelPosition=bottom;align=center;labelBackgroundColor=#ffffff;verticalAlign=top;strokeWidth=2;strokeColor=#0080F0;shadow=0;dashed=0;shape=mxgraph.ios7.icons.user;fontSize=16;fillColor=none;movable=0;resizable=0;rotatable=0;deletable=0;editable=0;connectable=0;" parent="KLi92U7IpaG3Ddm6AZuy-19" vertex="1">
          <mxGeometry width="30" height="30" as="geometry" />
        </mxCell>
        <mxCell id="KLi92U7IpaG3Ddm6AZuy-18" value="&lt;b&gt;:Sure. You can follow these steps:&lt;br&gt;1. ......&lt;br&gt;2.&amp;nbsp;&lt;/b&gt;&lt;b&gt;......&lt;/b&gt;&lt;b&gt;&lt;br&gt;3.&amp;nbsp;&lt;/b&gt;&lt;b&gt;......&lt;/b&gt;&lt;b&gt;&lt;br&gt;&lt;/b&gt;" style="text;html=1;align=left;verticalAlign=middle;whiteSpace=wrap;rounded=0;strokeWidth=2;fontSize=16;" parent="1" vertex="1">
          <mxGeometry x="170" y="190" width="150" height="100" as="geometry" />
        </mxCell>
        <mxCell id="SB8z0yp9CnF4xfvvdjGj-3" value="&lt;font style=&quot;font-size: 14px;&quot;&gt;&lt;b&gt;user requirements&lt;/b&gt;&lt;/font&gt;" style="shadow=0;dashed=0;html=1;strokeColor=none;fillColor=#4495D1;labelPosition=center;verticalLabelPosition=bottom;verticalAlign=top;align=center;outlineConnect=0;shape=mxgraph.veeam.checked_doc;" vertex="1" parent="1">
          <mxGeometry x="534.6" y="80" width="30.8" height="31.6" as="geometry" />
        </mxCell>
        <mxCell id="SB8z0yp9CnF4xfvvdjGj-7" value="&lt;font style=&quot;font-size: 14px;&quot;&gt;&lt;b&gt;Script Generation&lt;/b&gt;&lt;/font&gt;" style="verticalLabelPosition=bottom;html=1;verticalAlign=top;align=center;strokeColor=none;fillColor=#00BEF2;shape=mxgraph.azure.code_file;pointerEvents=1;" vertex="1" parent="1">
          <mxGeometry x="537.9" y="210" width="27.5" height="30" as="geometry" />
        </mxCell>
        <mxCell id="SB8z0yp9CnF4xfvvdjGj-11" value="&lt;font style=&quot;font-size: 14px;&quot;&gt;&lt;b&gt;Taks Analysis&lt;/b&gt;&lt;/font&gt;" style="shape=image;html=1;verticalLabelPosition=bottom;verticalAlign=top;imageAspect=1;aspect=fixed;image=img/clipart/Gear_128x128.png" vertex="1" parent="1">
          <mxGeometry x="534.6" y="140" width="34" height="39.88" as="geometry" />
        </mxCell>
      </root>
    </mxGraphModel>
  </diagram>
</mxfile>
